<?xml version="1.0" encoding="iso-8859-1"?>
<!-- Generator: Adobe Illustrator 17.1.0, SVG Export Plug-In . SVG Version: 6.00 Build 0)  -->
<!DOCTYPE svg PUBLIC "-//W3C//DTD SVG 1.1//EN" "http://www.w3.org/Graphics/SVG/1.1/DTD/svg11.dtd">
<svg version="1.1" id="Capa_1" xmlns="http://www.w3.org/2000/svg" xmlns:xlink="http://www.w3.org/1999/xlink" x="0px" y="0px"
	 viewBox="0 0 511 511" style="enable-background:new 0 0 511 511;" xml:space="preserve">
<g>
	<path d="M71.5,388c-4.142,0-7.5,3.358-7.5,7.5c0,4.687-3.813,8.5-8.5,8.5s-8.5-3.813-8.5-8.5s3.813-8.5,8.5-8.5
		c4.142,0,7.5-3.358,7.5-7.5s-3.358-7.5-7.5-7.5C42.542,372,32,382.542,32,395.5S42.542,419,55.5,419S79,408.458,79,395.5
		C79,391.358,75.642,388,71.5,388z"/>
	<path d="M375.5,388c-4.142,0-7.5,3.358-7.5,7.5c0,4.687-3.813,8.5-8.5,8.5s-8.5-3.813-8.5-8.5s3.813-8.5,8.5-8.5
		c4.142,0,7.5-3.358,7.5-7.5s-3.358-7.5-7.5-7.5c-12.958,0-23.5,10.542-23.5,23.5s10.542,23.5,23.5,23.5s23.5-10.542,23.5-23.5
		C383,391.358,379.642,388,375.5,388z"/>
	<path d="M151.5,388c-1.97,0-3.91,0.8-5.3,2.2c-1.4,1.39-2.2,3.33-2.2,5.3s0.8,3.91,2.2,5.3c1.39,1.4,3.33,2.2,5.3,2.2
		c1.97,0,3.91-0.8,5.3-2.2c1.4-1.39,2.2-3.33,2.2-5.3s-0.8-3.91-2.2-5.3C155.41,388.8,153.47,388,151.5,388z"/>
	<path d="M135.5,140c-1.97,0-3.91,0.8-5.3,2.2c-1.4,1.39-2.2,3.33-2.2,5.3s0.8,3.91,2.2,5.3c1.39,1.4,3.33,2.2,5.3,2.2
		c1.97,0,3.91-0.8,5.3-2.2c1.4-1.39,2.2-3.33,2.2-5.3s-0.8-3.91-2.2-5.3C139.41,140.8,137.48,140,135.5,140z"/>
	<path d="M263.5,252c-1.97,0-3.91,0.8-5.3,2.2c-1.4,1.39-2.2,3.33-2.2,5.3c0,1.98,0.8,3.91,2.2,5.3c1.39,1.4,3.33,2.2,5.3,2.2
		c1.97,0,3.91-0.8,5.3-2.2c1.4-1.39,2.2-3.32,2.2-5.3c0-1.97-0.8-3.91-2.2-5.3C267.41,252.8,265.47,252,263.5,252z"/>
	<path d="M474.2,120.8c1.39,1.4,3.33,2.2,5.3,2.2c1.97,0,3.91-0.8,5.3-2.2c1.4-1.39,2.2-3.33,2.2-5.3s-0.8-3.91-2.2-5.3
		c-1.39-1.4-3.33-2.2-5.3-2.2c-1.97,0-3.91,0.8-5.3,2.2c-1.4,1.39-2.2,3.33-2.2,5.3S472.8,119.41,474.2,120.8z"/>
	<path d="M487,172.902v-26.812c13.759-3.375,24-15.806,24-30.591c0-17.369-14.131-31.5-31.5-31.5h-58.445
		c-2.647-4.765-7.728-8-13.555-8H47v-0.5C47,66.953,40.047,60,31.5,60h-16C6.953,60,0,66.953,0,75.5v112
		c0,8.547,6.953,15.5,15.5,15.5h16c8.547,0,15.5-6.953,15.5-15.5V155h57.895c1.279,5.266,3.908,10.128,7.754,14.181
		c5.922,6.24,14.251,9.819,22.852,9.819h28.25L208,238v45.5c0,4.142,3.358,7.5,7.5,7.5h16.525c-0.011,0.166-0.025,0.331-0.025,0.5
		v32c0,4.687-3.813,8.5-8.5,8.5H191v-16.396c0-0.022,0-0.044,0-0.066V315.5c0-0.048-0.006-0.095-0.007-0.143
		c-0.004-0.193-0.01-0.387-0.029-0.582c-0.012-0.125-0.034-0.246-0.052-0.369c-0.018-0.119-0.031-0.237-0.054-0.356
		c-0.038-0.195-0.088-0.386-0.141-0.575c-0.012-0.043-0.019-0.087-0.032-0.131l-0.01-0.034c-0.007-0.022-0.013-0.045-0.02-0.067
		l-20.549-68.496C167.1,234.73,158.054,228,147.596,228H39.5C26.542,228,16,238.542,16,251.5v57.734c-9.29,3.138-16,11.93-16,22.266
		v64C0,426.103,24.897,451,55.5,451c28.058,0,51.305-20.934,54.979-48H120v0.5c0,12.958,10.542,23.5,23.5,23.5h48
		c12.958,0,23.5-10.542,23.5-23.5V403h89.521c3.675,27.066,26.921,48,54.979,48c28.084,0,51.348-20.973,54.989-48.076
		c0.331,0.045,0.667,0.076,1.011,0.076h32c8.547,0,15.5-6.953,15.5-15.5v-104c0-0.061-0.008-0.119-0.009-0.179
		c-0.004-0.157-0.01-0.314-0.024-0.472c-0.009-0.108-0.023-0.215-0.037-0.321c-0.017-0.132-0.036-0.263-0.06-0.395
		c-0.025-0.134-0.055-0.265-0.087-0.396c-0.025-0.102-0.049-0.204-0.079-0.306c-0.044-0.155-0.096-0.306-0.15-0.456
		c-0.02-0.055-0.033-0.111-0.054-0.167l-32.11-83.487c-5.825-15.145-20.641-25.32-36.867-25.32H335.5
		c-12.958,0-23.5,10.542-23.5,23.5V252h-17.909c-2.199-8.967-8.246-16.433-16.285-20.55c-0.237-0.368-0.502-0.722-0.81-1.054
		L206.985,155H407.5c5.827,0,10.908-3.235,13.555-8H472v32.5c0,4.142,3.358,7.5,7.5,7.5c9.098,0,16.5,7.402,16.5,16.5
		s-7.402,16.5-16.5,16.5s-16.5-7.402-16.5-16.5c0-4.142-3.358-7.5-7.5-7.5s-7.5,3.358-7.5,7.5c0,17.369,14.131,31.5,31.5,31.5
		s31.5-14.131,31.5-31.5C511,188.714,500.76,176.275,487,172.902z M496,115.5c0,9.098-7.402,16.5-16.5,16.5H423V99h56.5
		C488.598,99,496,106.402,496,115.5z M32,187.5c0,0.257-0.243,0.5-0.5,0.5h-16c-0.257,0-0.5-0.243-0.5-0.5v-112
		c0-0.257,0.243-0.5,0.5-0.5h16c0.257,0,0.5,0.243,0.5,0.5v8v64V187.5z M47,91h360.5c0.276,0,0.5,0.225,0.5,0.5V108H217.441
		c-8.414,0-16.324,3.276-22.273,9.227l-12.06,12.06l-2.99-3.221c-5.94-6.396-14.354-10.065-23.083-10.065h-20.176
		c-15.432,0-28.446,10.158-31.934,24H47V91z M167.5,164h-32c-4.571,0-8.823-1.827-11.971-5.145
		c-3.146-3.314-4.746-7.667-4.505-12.254c0.451-8.603,8.451-15.602,17.834-15.602h20.176c4.573,0,8.98,1.922,12.091,5.272
		L254.301,228H219.25l-45.75-61C172.083,165.111,169.861,164,167.5,164z M15,331.5c0-4.687,3.813-8.5,8.5-8.5h16
		c4.142,0,7.5-3.358,7.5-7.5s-3.358-7.5-7.5-7.5H31v-56.5c0-4.687,3.813-8.5,8.5-8.5h108.096c3.783,0,7.055,2.435,8.142,6.058
		L173.42,308H71.503c-4.142,0-7.5,3.358-7.5,7.5s3.358,7.5,7.5,7.5H176v41h-32.5h-40c-0.737,0-1.448,0.111-2.121,0.309
		C91.38,349.647,74.547,340,55.5,340c-15.964,0-30.365,6.784-40.5,17.61V331.5z M55.5,436C33.168,436,15,417.832,15,395.5
		S33.168,355,55.5,355S96,373.168,96,395.5S77.832,436,55.5,436z M110.479,388c-0.419-3.085-1.077-6.096-1.983-9h13.102
		c-1.027,2.638-1.597,5.503-1.597,8.5v0.5H110.479z M200,403.5c0,4.687-3.813,8.5-8.5,8.5h-48c-4.687,0-8.5-3.813-8.5-8.5v-16
		c0-4.687,3.813-8.5,8.5-8.5h48c4.687,0,8.5,3.813,8.5,8.5V403.5z M213.403,379h93.102c-0.906,2.904-1.564,5.915-1.983,9H215v-0.5
		C215,384.503,214.43,381.638,213.403,379z M359.5,436c-22.332,0-40.5-18.168-40.5-40.5s18.168-40.5,40.5-40.5
		s40.5,18.168,40.5,40.5S381.832,436,359.5,436z M441.503,268H375.5c-9.098,0-16.5-7.402-16.5-16.5V219h63.657L441.503,268z
		 M448,348h-8.5c-0.257,0-0.5-0.243-0.5-0.5v-8c0-0.257,0.243-0.5,0.5-0.5h8.5V348z M327,195.5c0-4.687,3.813-8.5,8.5-8.5h58.022
		c10.064,0,19.254,6.312,22.867,15.705l0.498,1.295H351.5c-4.142,0-7.5,3.358-7.5,7.5v40c0,17.369,14.131,31.5,31.5,31.5h71.772
		l0.728,1.893V324h-8.5c-8.547,0-15.5,6.953-15.5,15.5v8c0,8.547,6.953,15.5,15.5,15.5h8.5v24.5c0,0.275-0.224,0.5-0.5,0.5h-32
		c-0.344,0-0.68,0.031-1.011,0.076C410.848,360.973,387.584,340,359.5,340c-12.131,0-23.357,3.923-32.5,10.552V195.5z
		 M312.027,364.026c-0.175-0.012-0.349-0.026-0.527-0.026h-120H191v-17h32.5c12.958,0,23.5-10.542,23.5-23.5v-32
		c0-0.169-0.014-0.334-0.025-0.5H263.5c14.785,0,27.216-10.241,30.591-24H312v96.5C312,363.678,312.014,363.852,312.027,364.026z
		 M263.5,276H223v-33h40.5c9.098,0,16.5,7.402,16.5,16.5S272.598,276,263.5,276z M407.5,140H193.607l12.167-12.167
		c3.117-3.117,7.26-4.833,11.667-4.833H408v16.5C408,139.775,407.776,140,407.5,140z"/>
	<path d="M55.5,267h32c4.142,0,7.5-3.358,7.5-7.5s-3.358-7.5-7.5-7.5h-32c-4.142,0-7.5,3.358-7.5,7.5S51.358,267,55.5,267z"/>
	<path d="M55.5,291h32c4.142,0,7.5-3.358,7.5-7.5s-3.358-7.5-7.5-7.5h-32c-4.142,0-7.5,3.358-7.5,7.5S51.358,291,55.5,291z"/>
</g>
<g>
</g>
<g>
</g>
<g>
</g>
<g>
</g>
<g>
</g>
<g>
</g>
<g>
</g>
<g>
</g>
<g>
</g>
<g>
</g>
<g>
</g>
<g>
</g>
<g>
</g>
<g>
</g>
<g>
</g>
</svg>
